<svg width="30.000000" height="30.000000" viewBox="0 0 30 30" fill="none" xmlns="http://www.w3.org/2000/svg" xmlns:xlink="http://www.w3.org/1999/xlink">
	<desc>
			Created with Pixso.
	</desc>
	<path d="M28.125 0C29.25 0 30 0.75 30 1.875L30 22.5C30 23.625 29.25 24.375 28.125 24.375L18.75 24.375L18.75 26.25L24.375 26.25L24.375 30L5.625 30L5.625 26.25L11.25 26.25L11.25 24.375L1.875 24.375C0.75 24.375 0 23.625 0 22.5L0 1.875C0 0.75 0.75 0 1.875 0L28.125 0ZM26.25 20.625L26.25 3.75L3.75 3.75L3.75 20.625L26.25 20.625ZM14.8125 10.125L14.8125 7.5L20.25 12.1875L14.8125 16.875L14.8125 14.25C11.25 14.25 10.3125 15.1875 9.375 16.875C9.375 12.75 11.25 10.125 14.8125 10.125Z" fill="#000000"/>
	<defs/>
</svg>
