<svg width="17.186951" height="16.084656" viewBox="0 0 17.187 16.0847" fill="none" xmlns="http://www.w3.org/2000/svg" xmlns:xlink="http://www.w3.org/1999/xlink">
	<desc>
			Created with Pixso.
	</desc>
	<path d="M6.49078 9.19124C8.52515 9.19124 10.3478 9.9109 11.9587 11.3512C12.3701 11.7189 12.5758 12.1938 12.5758 12.7758L12.5758 14.2464C12.5758 15.4719 12.0169 16.0847 10.899 16.0847L1.67676 16.0847C0.558899 16.0847 0 15.4719 0 14.2464L0 12.8493C-0.000183105 12.2225 0.231506 11.7256 0.695007 11.3585C2.52063 9.91367 4.4527 9.19124 6.49078 9.19124ZM16.5582 9.19124C16.9774 9.19124 17.187 9.42102 17.187 9.88057C17.187 10.3401 16.9774 10.5699 16.5582 10.5699L14.8813 10.5699C14.4622 10.5699 14.2526 10.3401 14.2526 9.88057C14.2526 9.42102 14.4622 9.19124 14.8813 9.19124L16.5582 9.19124ZM6.2879 0C8.52362 0 9.64148 1.22549 9.64148 3.6765C9.64148 6.12749 8.52362 7.35298 6.2879 7.35298C4.05219 7.35298 2.93433 6.12749 2.93433 3.6765C2.93433 1.22549 4.05219 0 6.2879 0ZM16.5582 5.51474C16.9774 5.51474 17.187 5.74452 17.187 6.20409C17.187 6.66365 16.9774 6.89342 16.5582 6.89342L11.947 6.89342C11.5278 6.89342 11.3182 6.66365 11.3182 6.20409C11.3182 5.74452 11.5278 5.51474 11.947 5.51474L16.5582 5.51474ZM16.5582 1.83824C16.9771 1.83856 17.1865 2.06834 17.1865 2.52759C17.1865 2.98683 16.9771 3.21661 16.5582 3.21693L11.947 3.21693C11.5278 3.21693 11.3182 2.98715 11.3182 2.52759C11.3182 2.06802 11.5278 1.83824 11.947 1.83824L16.5582 1.83824L16.5582 1.83824Z" fill="#000000"/>
	<defs/>
</svg>
