<svg width="24.000000" height="23.999573" viewBox="0 0 24 23.9996" fill="none" xmlns="http://www.w3.org/2000/svg" xmlns:xlink="http://www.w3.org/1999/xlink">
	<desc>
			Created with Pixso.
	</desc>
	<path d="M12.237 1.20148C13.1355 0.453003 14.292 0 15.555 0C19.4134 0 21.1324 1.91711 20.7121 5.75134C20.2924 9.58624 18.1993 11.0861 14.433 10.251C15.1905 9.24146 15.6465 7.99194 15.6465 6.63147C15.6454 4.10858 14.5089 2.29858 12.237 1.20148ZM3.8505 6.67047C3.8505 10.129 5.57975 11.8582 9.03825 11.8582C12.4967 11.8582 14.226 10.129 14.226 6.67047C14.226 3.21198 12.4967 1.48273 9.03825 1.48273C5.57975 1.48273 3.8505 3.21198 3.8505 6.67047ZM12.174 12.468C12.7395 12.201 14.418 12.036 14.964 12.036C19.9545 12.036 24.003 14.2065 24 18.9015C24 20.5725 21.7155 21.648 18.768 22.1295C19.2585 21.603 19.536 20.997 19.536 20.313C19.536 15.9285 15.702 13.185 12.174 12.468ZM18.075 20.601L18.075 20.6025C18.0709 25.1324 0 25.132 0 20.601C0 16.0709 4.0455 13.3425 9.036 13.3425C14.0259 13.3425 18.0741 16.0688 18.075 20.601Z" fill-rule="evenodd" fill="#000000"/>
	<defs/>
</svg>
