<svg width="10.433472" height="10.546875" viewBox="0 0 10.4335 10.5469" fill="none" xmlns="http://www.w3.org/2000/svg" xmlns:xlink="http://www.w3.org/1999/xlink">
	<desc>
			Created with Pixso.
	</desc>
	<mask id="path-1-inside-1" fill="white">
		<path d="M7.0152 6.36504L10.4022 9.78882C10.4439 9.83101 10.4439 9.89957 10.4022 9.94174L9.83356 10.5152C9.79181 10.5574 9.724 10.5574 9.68225 10.5152L6.29529 7.09277C5.61584 7.62276 4.78638 7.91016 3.91254 7.91016C2.86658 7.91016 1.88452 7.49883 1.14636 6.75131C0.408203 6.00513 0 5.01108 0 3.95508C0 2.89775 0.406921 1.90503 1.14636 1.15884C1.88452 0.412643 2.86792 0 3.91254 0C4.95721 0 5.94055 0.411331 6.67871 1.15884C7.41687 1.90634 7.82507 2.89775 7.82507 3.95508C7.82507 4.83838 7.54077 5.67818 7.0152 6.36504ZM3.91229 6.9082C4.6922 6.9082 5.42511 6.60103 5.97809 6.04337C6.52979 5.48569 6.83362 4.74345 6.83362 3.95508C6.83362 3.1667 6.52979 2.42578 5.97809 1.86679C5.42645 1.30782 4.6922 1.00195 3.91229 1.00195C3.13239 1.00195 2.39941 1.30913 1.84644 1.86679C1.2948 2.42447 0.990906 3.1667 0.990906 3.95508C0.990906 4.74345 1.2948 5.48438 1.84644 6.04337C2.39941 6.60103 3.13239 6.9082 3.91229 6.9082Z" fill-opacity="0.000000"/>
	</mask>
	<path d="M7.0152 6.36504L10.4022 9.78882C10.4439 9.83101 10.4439 9.89957 10.4022 9.94174L9.83356 10.5152C9.79181 10.5574 9.724 10.5574 9.68225 10.5152L6.29529 7.09277C5.61584 7.62276 4.78638 7.91016 3.91254 7.91016C2.86658 7.91016 1.88452 7.49883 1.14636 6.75131C0.408203 6.00513 0 5.01108 0 3.95508C0 2.89775 0.406921 1.90503 1.14636 1.15884C1.88452 0.412643 2.86792 0 3.91254 0C4.95721 0 5.94055 0.411331 6.67871 1.15884C7.41687 1.90634 7.82507 2.89775 7.82507 3.95508C7.82507 4.83838 7.54077 5.67818 7.0152 6.36504ZM3.91229 6.9082C4.6922 6.9082 5.42511 6.60103 5.97809 6.04337C6.52979 5.48569 6.83362 4.74345 6.83362 3.95508C6.83362 3.1667 6.52979 2.42578 5.97809 1.86679C5.42645 1.30782 4.6922 1.00195 3.91229 1.00195C3.13239 1.00195 2.39941 1.30913 1.84644 1.86679C1.2948 2.42447 0.990906 3.1667 0.990906 3.95508C0.990906 4.74345 1.2948 5.48438 1.84644 6.04337C2.39941 6.60103 3.13239 6.9082 3.91229 6.9082Z" fill="#000000" fill-opacity="0.250000"/>
	<defs/>
</svg>
