<svg width="15.990021" height="15.990021" viewBox="0 0 15.99 15.99" fill="none" xmlns="http://www.w3.org/2000/svg" xmlns:xlink="http://www.w3.org/1999/xlink">
	<desc>
			Created with Pixso.
	</desc>
	<path d="M14.9906 0L4.59213 0C3.92587 0 3.59274 0.33313 3.59274 0.99939L3.59274 2.99814L0.99939 2.99814C0.33313 2.99814 0 3.33124 0 3.9975L0 14.9906C0 15.6569 0.33313 15.99 0.99939 15.99L11.9925 15.99C12.6588 15.99 12.9919 15.6569 12.9919 14.9906L12.9919 12.3823L14.9906 12.3823C15.6569 12.3823 15.99 12.0491 15.99 11.3829L15.99 0.99939C15.99 0.33313 15.6569 0 14.9906 0L14.9906 0ZM11.9925 11.3829L11.9925 14.9906L0.99939 14.9906L0.99939 3.9975L11.9925 3.9975L11.9925 11.3829ZM14.9507 11.3829L12.9919 11.3829L12.9919 3.9975C12.9919 3.33124 12.6588 2.99814 11.9925 2.99814L4.59213 2.99814L4.59213 0.99939L14.9906 0.99939L14.9507 11.3829Z" fill="#000000"/>
	<defs/>
</svg>
