<svg width="21.152618" height="22.500000" viewBox="0 0 21.1526 22.5" fill="none" xmlns="http://www.w3.org/2000/svg" xmlns:xlink="http://www.w3.org/1999/xlink">
	<desc>
			Created with Pixso.
	</desc>
	<path d="M16.6385 3.26154C17.3475 3.76575 17.9779 4.33685 18.5293 4.9751C19.0807 5.6134 19.5534 6.30261 19.9474 7.04327C20.3413 7.78387 20.6406 8.56763 20.8453 9.3949C21.0503 10.2221 21.1526 11.061 21.1526 11.9119C21.1526 13.3772 20.873 14.752 20.3136 16.0361C19.7544 17.3203 18.9979 18.439 18.0446 19.3922C17.0914 20.3455 15.9726 21.1018 14.6886 21.6611C13.4046 22.2205 12.03 22.5 10.5645 22.5C9.11511 22.5 7.74808 22.2205 6.46405 21.6609C5.17987 21.1018 4.05731 20.3453 3.09619 19.392C2.13507 18.4387 1.37888 17.3199 0.82724 16.0359C0.275635 14.752 0 13.377 0 11.9117C0 11.0767 0.0984497 10.2572 0.295502 9.45374C0.492371 8.65015 0.771942 7.88605 1.13455 7.16138C1.49701 6.43652 1.94586 5.75885 2.48175 5.12885C3.01743 4.49847 3.61612 3.93134 4.2778 3.42694C4.62469 3.17493 4.99875 3.08044 5.40057 3.14343C5.80237 3.20642 6.12918 3.4035 6.3812 3.73425C6.63336 4.06519 6.72806 4.43549 6.66507 4.84521C6.60187 5.25488 6.405 5.58582 6.07407 5.83783C5.08124 6.5625 4.32114 7.45276 3.7933 8.50836C3.2655 9.56403 3.00131 10.6985 3.00131 11.9117C3.00131 12.9517 3.19836 13.9324 3.59232 14.8541C3.98624 15.7759 4.52588 16.5795 5.21118 17.2648C5.8967 17.9501 6.70013 18.4939 7.62189 18.8955C8.54364 19.2975 9.52426 19.4983 10.5641 19.4983C11.6042 19.4983 12.585 19.2975 13.5066 18.8955C14.4283 18.4937 15.2319 17.9501 15.9172 17.2648C16.6028 16.5795 17.1463 15.7759 17.5479 14.8541C17.95 13.9324 18.1508 12.9517 18.1508 11.9117C18.1508 10.6826 17.8671 9.52069 17.2999 8.42566C16.7327 7.33069 15.937 6.42865 14.913 5.71948C14.5661 5.48328 14.3575 5.16022 14.2866 4.75067C14.2157 4.34082 14.2984 3.96283 14.5346 3.61615C14.7711 3.28522 15.0939 3.08435 15.5036 3.01349C15.9137 2.94244 16.2919 3.02533 16.6385 3.26154L16.6385 3.26154ZM10.5645 11.9825C10.1548 11.9825 9.80438 11.8369 9.513 11.5455C9.22144 11.254 9.07574 10.9033 9.07574 10.4937L9.07574 1.51257C9.07574 1.10291 9.22144 0.748474 9.513 0.449036C9.80457 0.149597 10.1548 0 10.5645 0C10.9901 0 11.3486 0.149597 11.6398 0.449036C11.9315 0.748474 12.0772 1.10291 12.0772 1.51257L12.0772 10.4937C12.0772 10.9033 11.9316 11.254 11.6398 11.5455C11.3484 11.8369 10.9899 11.9825 10.5645 11.9825L10.5645 11.9825Z" fill="#D01D1D"/>
	<defs/>
</svg>
