<svg width="16.622189" height="12.666718" viewBox="0 0 16.6222 12.6667" fill="none" xmlns="http://www.w3.org/2000/svg" xmlns:xlink="http://www.w3.org/1999/xlink">
	<desc>
			Created with Pixso.
	</desc>
	<path d="M6.26827 4.03354C7.21434 3.12103 8.35704 2.66541 9.69635 2.66666L10.845 2.66666C10.8174 2.59146 10.7873 2.51688 10.7548 2.44293C10.0402 0.812958 8.76394 -0.00134277 6.92601 0L4.15567 0C2.2482 -6.10352e-05 0.954155 0.857513 0.273537 2.57272C-0.407078 4.28796 -0.0364799 5.75757 1.38533 6.98157L1.38533 9C1.3853 9.1485 1.45656 9.25119 1.59909 9.30801C1.74163 9.36484 1.86744 9.34076 1.97652 9.23572L3.34004 7.92322C3.6093 7.97455 3.88118 8.00015 4.15567 8L4.89727 8C4.86451 7.7789 4.84817 7.55667 4.84826 7.33334C4.84694 6.04413 5.32027 4.94421 6.26827 4.03354L6.26827 4.03354ZM3.46309 4.66666C3.00136 4.66666 2.7705 4.44446 2.7705 4C2.7705 3.55554 3.00136 3.33334 3.46309 3.33334C3.92481 3.33334 4.15567 3.55554 4.15567 4C4.15567 4.44446 3.92481 4.66666 3.46309 4.66666L3.46309 4.66666ZM16.2955 5.77625C15.5809 4.1463 14.3046 3.332 12.4667 3.33334L9.69635 3.33334C6.92601 3.33334 5.54084 4.66666 5.54084 7.33334C5.54084 10 6.92601 11.3333 9.69635 11.3333L12.4667 11.3333C12.7411 11.3334 13.0128 11.3077 13.282 11.2563L14.6455 12.5688C14.7545 12.674 14.8804 12.6982 15.023 12.6414C15.1657 12.5847 15.237 12.482 15.237 12.3333L15.237 10.3149C16.7114 9.04437 17.0642 7.53149 16.2955 5.77625ZM8.31118 8C7.84945 8 7.61859 7.77777 7.61859 7.33334C7.61859 6.88889 7.84945 6.66666 8.31118 6.66666C8.7729 6.66666 9.00376 6.88889 9.00376 7.33334C9.00376 7.77777 8.7729 8 8.31118 8ZM11.0815 8C10.6198 8 10.3889 7.77777 10.3889 7.33334C10.3889 6.88889 10.6198 6.66666 11.0815 6.66666C11.5432 6.66666 11.7741 6.88889 11.7741 7.33334C11.7741 7.77777 11.5432 8 11.0815 8ZM13.8519 8C13.3901 8 13.1593 7.77777 13.1593 7.33334C13.1593 6.88889 13.3901 6.66666 13.8519 6.66666C14.3136 6.66666 14.5444 6.88889 14.5444 7.33334C14.5444 7.77777 14.3136 8 13.8519 8Z" fill="#000000"/>
	<defs/>
</svg>
