<svg width="21.858765" height="26.250000" viewBox="0 0 21.8588 26.25" fill="none" xmlns="http://www.w3.org/2000/svg" xmlns:xlink="http://www.w3.org/1999/xlink">
	<desc>
			Created with Pixso.
	</desc>
	<path d="M16.6688 20.6644C16.8619 21.1931 17.1787 21.8531 17.7412 22.5413C19.1963 24.3262 21.8588 26.25 21.8588 26.25L0.545624 26.25C0.545624 26.25 3.29062 24.225 4.7775 22.4025C5.20126 21.8831 5.47125 21.3844 5.65314 20.9512C2.28561 19.0463 0 15.3825 0 11.1694C0 5.00061 4.89188 0 10.9294 0C16.965 0 21.8588 5.00061 21.8588 11.1694C21.8588 15.1856 19.7794 18.6956 16.6688 20.6644ZM10.9294 3.90936C7.005 3.90936 3.82501 7.15875 3.82501 11.1694C3.82501 15.18 7.005 18.4294 10.9294 18.4294C14.8519 18.4294 18.0319 15.18 18.0319 11.1694C18.0319 7.15875 14.8519 3.90936 10.9294 3.90936ZM10.9294 15.0806C8.81625 15.0806 7.10437 13.3275 7.10437 11.1694C7.10437 9.01123 8.81625 7.26001 10.9294 7.26001C13.0406 7.26001 14.7544 9.01123 14.7544 11.1694C14.7544 13.3275 13.0406 15.0806 10.9294 15.0806Z" fill-rule="evenodd" fill="#000000"/>
	<defs/>
</svg>
