<svg width="30.000000" height="30.000000" viewBox="0 0 30 30" fill="none" xmlns="http://www.w3.org/2000/svg" xmlns:xlink="http://www.w3.org/1999/xlink">
	<desc>
			Created with Pixso.
	</desc>
	<path d="M20.7473 22.5356L28.2128 30L30 28.2729L22.7011 20.9585C24.6931 18.9382 25.9294 16.1424 25.9294 13.0456C25.9294 6.87683 21.0356 1.87622 15 1.87622C11.8938 1.87622 9.09079 3.19989 7.10123 5.32532L1.78723 0L0 1.79102L5.58276 7.37305C4.62192 9.03558 4.07065 10.9748 4.07065 13.0456C4.07065 17.2587 6.35629 20.9225 9.72379 22.8275C9.5419 23.2606 9.27188 23.7594 8.84814 24.2787C7.36127 26.1013 4.61627 28.1262 4.61627 28.1262L25.9294 28.1262C25.9294 28.1262 23.2669 26.2025 21.8119 24.4175C21.2494 23.7294 20.9325 23.0693 20.7394 22.5406C20.7421 22.5389 20.7447 22.5372 20.7473 22.5356ZM19.9754 18.227C21.2882 16.9097 22.1025 15.0751 22.1025 13.0456C22.1025 9.03497 18.9225 5.78558 15 5.78558C12.9637 5.78558 11.1278 6.66046 9.83264 8.06256L12.1751 10.41C12.8744 9.62738 13.881 9.13623 15 9.13623C17.1113 9.13623 18.825 10.8875 18.825 13.0456C18.825 14.1607 18.3675 15.1677 17.634 15.8806L19.9754 18.227ZM15.1643 16.9533L17.8906 19.6793C17.0076 20.0818 16.0294 20.3056 15 20.3056C11.0757 20.3056 7.89566 17.0562 7.89566 13.0456C7.89566 12.0496 8.09177 11.1006 8.44669 10.2366L11.1758 12.9653C11.1753 12.992 11.175 13.0188 11.175 13.0456C11.175 15.2037 12.8869 16.9568 15 16.9568C15.0551 16.9568 15.1098 16.9556 15.1643 16.9533Z" fill-rule="evenodd" fill="#000000"/>
	<defs/>
</svg>
