<svg width="29.962112" height="29.966980" viewBox="0 0 29.9621 29.967" fill="none" xmlns="http://www.w3.org/2000/svg" xmlns:xlink="http://www.w3.org/1999/xlink">
	<desc>
			Created with Pixso.
	</desc>
	<path d="M29.8834 12.9939C29.7972 11.8759 29.5894 11.7748 28.4845 11.8629C27.2617 11.9602 26.2281 11.3516 25.8067 10.2861C25.3742 9.19629 25.6869 8.07269 26.64 7.29187C27.2823 6.76562 27.361 6.33868 26.7786 5.7226C25.9022 4.79572 24.9884 3.90057 24.0353 3.0542C23.2956 2.3988 22.951 2.48303 22.3256 3.27142C21.5616 4.23389 20.3388 4.52045 19.2283 4.00171C18.1872 3.51483 17.6984 2.62537 17.779 1.36322C17.8333 0.498108 17.5786 0.194763 16.7153 0.129211C16.0412 0.0767822 15.3671 0.0411987 14.7341 0C14.0694 0.0730591 13.4496 0.127319 12.8353 0.209717C11.9758 0.323975 11.7904 0.57489 11.8653 1.45502C11.9796 2.79016 11.4234 3.79388 10.3148 4.25262C9.23997 4.6983 8.12766 4.37811 7.28313 3.3819C6.78314 2.79205 6.34683 2.70587 5.79442 3.22833C4.86562 4.10095 3.95367 4.99982 3.10725 5.95483C2.38445 6.76941 2.46497 7.04651 3.30014 7.74316C4.09412 8.40601 4.43866 9.25433 4.2177 10.2805C3.99112 11.3235 3.33009 11.9939 2.29643 12.2355C1.91629 12.3235 1.4987 12.2673 1.09985 12.2635C0.556793 12.2579 0.214111 12.5051 0.14296 13.0369C-0.0536652 14.5125 -0.0611572 15.99 0.206619 17.46C0.311493 18.0405 0.624207 18.2652 1.21033 18.2296C1.5193 18.2109 1.83203 18.1379 2.13539 18.1678C3.21774 18.2745 4.0679 18.9937 4.36002 20.0067C4.65215 21.0142 4.30571 22.0422 3.43683 22.7407C2.72151 23.3156 2.64285 23.7144 3.26456 24.3754C4.12595 25.2911 5.01917 26.1825 5.96295 27.012C6.7663 27.718 7.07152 27.6356 7.74191 26.7798C8.66135 25.6039 10.3092 25.4466 11.4365 26.4109C12.193 27.0588 12.3953 27.8772 12.296 28.8284C12.223 29.5307 12.4814 29.9352 13.0975 29.9482C14.4813 29.9764 15.8689 29.982 17.249 29.8996C18.1479 29.8453 18.3258 29.5251 18.2246 28.6187C18.0767 27.3042 18.6291 26.2724 19.7321 25.8043C20.8463 25.3323 21.9754 25.6525 22.8012 26.675C23.3068 27.3004 23.7506 27.3922 24.3237 26.8454C25.2731 25.9409 26.1962 25.0027 27.067 24.0234C27.6999 23.3118 27.61 22.9279 26.8479 22.353C26.2112 21.8737 25.8517 21.237 25.8067 20.4449C25.7131 18.8251 27.0333 17.5967 28.6737 17.7596C29.5107 17.842 29.9208 17.6042 29.9395 16.8739C29.9714 15.5818 29.9826 14.2822 29.8834 12.9939ZM15.0132 21.516C11.414 21.4767 8.52652 18.548 8.57333 14.9844C8.62015 11.4677 11.5227 8.57642 14.9907 8.59143C18.5748 8.60638 21.5316 11.5538 21.4942 15.08C21.4586 18.6528 18.5336 21.5554 15.0132 21.516Z" fill="#000000"/>
	<defs/>
</svg>
