<svg width="30.000000" height="30.000000" viewBox="0 0 30 30" fill="none" xmlns="http://www.w3.org/2000/svg" xmlns:xlink="http://www.w3.org/1999/xlink">
	<desc>
			Created with Pixso.
	</desc>
	<path d="M13.125 11.25L1.875 11.25C0.84082 11.25 0 10.4092 0 9.375L0 1.875C0 0.84082 0.84082 0 1.875 0L13.125 0C14.1592 0 15 0.84082 15 1.875L15 9.375C15 10.4092 14.1592 11.25 13.125 11.25ZM17.8125 4.6875Q17.8125 5.625 18.75 5.625L23.4375 5.625C23.9561 5.625 24.375 6.04395 24.375 6.5625L24.375 11.25Q24.375 12.1875 25.3125 12.1875Q26.25 12.1875 26.25 11.25L26.25 5.3584C26.25 4.4707 25.5293 3.75 24.6416 3.75L18.75 3.75Q17.8125 3.75 17.8125 4.6875ZM2.8125 14.0625L12.1875 14.0625C12.7061 14.0625 13.125 13.6436 13.125 13.125C13.125 12.6064 12.7061 12.1875 12.1875 12.1875L2.8125 12.1875C2.29395 12.1875 1.875 12.6064 1.875 13.125C1.875 13.6436 2.29395 14.0625 2.8125 14.0625ZM16.875 27.1875L28.125 27.1875C29.1592 27.1875 30 26.3467 30 25.3125L30 17.8125C30 16.7783 29.1592 15.9375 28.125 15.9375L16.875 15.9375C15.8408 15.9375 15 16.7783 15 17.8125L15 25.3125C15 26.3467 15.8408 27.1875 16.875 27.1875ZM4.6875 17.8125Q3.75 17.8125 3.75 18.75L3.75 24.6416C3.75 25.5293 4.4707 26.25 5.3584 26.25L11.25 26.25Q12.1875 26.25 12.1875 25.3125Q12.1875 24.375 11.25 24.375L6.5625 24.375C6.04395 24.375 5.625 23.9561 5.625 23.4375L5.625 18.75Q5.625 17.8125 4.6875 17.8125ZM17.8125 30L27.1875 30C27.7061 30 28.125 29.5811 28.125 29.0625C28.125 28.5439 27.7061 28.125 27.1875 28.125L17.8125 28.125C17.2939 28.125 16.875 28.5439 16.875 29.0625C16.875 29.5811 17.2939 30 17.8125 30Z" fill-rule="evenodd" fill="#000000"/>
	<defs/>
</svg>
