<svg width="30.000000" height="30.000000" viewBox="0 0 30 30" fill="none" xmlns="http://www.w3.org/2000/svg" xmlns:xlink="http://www.w3.org/1999/xlink">
	<desc>
			Created with Pixso.
	</desc>
	<path d="M29.653 27.5L30 27.5L30 18.75C30 6.25 25 0 15 0Q8.63687 0 4.97302 3.37415L1.52142 0L0 2.16077L3.25806 5.34564Q0 10.0115 0 18.75L0 27.5L3 27.5L3 18.75Q3 11.5445 5.76904 7.80029L19 20.7342L19 27.5C19 29.1667 19.6667 30 21 30L23 30C24.3333 30 25 29.1667 25 27.5L25 26.5995L28.4786 30L30 27.8392L29.653 27.5ZM25 22.9514L27 24.9066L27 18.75C27 8.75 23 3.75 15 3.75Q10.4221 3.75 7.5907 5.93298L19.7822 17.8508C20.0946 17.6169 20.5005 17.5 21 17.5L23 17.5C24.3333 17.5 25 18.3333 25 20L25 22.9514ZM7 17.5L9 17.5Q11 17.5 11 20L11 27.5C11 29.1667 10.3333 30 9 30L7 30C5.66666 30 5 29.1667 5 27.5L5 20Q5 17.5 7 17.5Z" fill-rule="evenodd" fill="#000000"/>
	<defs/>
</svg>
