<svg width="30.000000" height="30.000000" viewBox="0 0 30 30" fill="none" xmlns="http://www.w3.org/2000/svg" xmlns:xlink="http://www.w3.org/1999/xlink">
	<desc>
			Created with Pixso.
	</desc>
	<path d="M30 27.5L27 27.5L27 18.75C27 8.75 23 3.75 15 3.75C7 3.75 3 8.75 3 18.75L3 27.5L0 27.5L0 18.75C0 6.25 5 0 15 0C25 0 30 6.25 30 18.75L30 27.5ZM7 17.5L9 17.5C10.3333 17.5 11 18.3333 11 20L11 27.5C11 29.1667 10.3333 30 9 30L7 30C5.66666 30 5 29.1667 5 27.5L5 20C5 18.3333 5.66666 17.5 7 17.5L7 17.5ZM21 17.5L23 17.5C24.3333 17.5 25 18.3333 25 20L25 27.5C25 29.1667 24.3333 30 23 30L21 30C19.6667 30 19 29.1667 19 27.5L19 20C19 18.3333 19.6667 17.5 21 17.5L21 17.5Z" fill="#000000"/>
	<defs/>
</svg>
