<svg width="17.812500" height="30.000000" viewBox="0 0 17.8125 30" fill="none" xmlns="http://www.w3.org/2000/svg" xmlns:xlink="http://www.w3.org/1999/xlink">
	<desc>
			Created with Pixso.
	</desc>
	<path d="M14.5312 5.625L14.5312 16.4062C14.5312 17.9531 13.8984 19.3594 12.8789 20.3789C11.8594 21.3984 10.4531 22.0312 8.90625 22.0312C5.8125 22.0312 3.28125 19.5 3.28125 16.4062L3.28125 5.625C3.28125 2.53125 5.8125 0 8.90625 0C12 0 14.5312 2.53125 14.5312 5.625ZM17.8125 18.75L17.8125 14.5312C17.8125 14.0039 17.3789 13.5791 16.8486 13.5938C16.3389 13.6084 15.9375 14.042 15.9375 14.5518L15.9375 18.334C15.9375 18.5361 15.9053 18.7383 15.8408 18.9287C14.8447 21.8818 12.0527 23.9062 8.90625 23.9062C5.75977 23.9062 2.96777 21.8818 1.97168 18.9287C1.90723 18.7383 1.875 18.5361 1.875 18.334L1.875 14.5312C1.875 14.0039 1.44141 13.5791 0.911133 13.5938C0.401367 13.6084 0 14.042 0 14.5518L0 18.75C0 18.832 0.0117188 18.917 0.0322266 18.9961C1.0166 22.6201 4.10742 25.251 7.76367 25.7109C7.88086 25.7256 7.96875 25.8252 7.96875 25.9424L7.96875 27.6562C7.96875 27.9141 7.75781 28.125 7.5 28.125L5.15625 28.125C4.12207 28.125 3.28125 28.9658 3.28125 30L14.5312 30C14.5312 28.9658 13.6904 28.125 12.6562 28.125L10.3125 28.125C10.0547 28.125 9.84375 27.9141 9.84375 27.6562L9.84375 25.9395C9.84375 25.8223 9.93164 25.7227 10.0488 25.708C11.6895 25.5029 13.2158 24.8584 14.4902 23.8857C16.0547 22.6904 17.2383 20.9941 17.7803 18.9961C17.8008 18.9141 17.8125 18.832 17.8125 18.75Z" fill-rule="evenodd" fill="#000000"/>
	<defs/>
</svg>
