<svg width="30.000000" height="30.001221" viewBox="0 0 30 30.0012" fill="none" xmlns="http://www.w3.org/2000/svg" xmlns:xlink="http://www.w3.org/1999/xlink">
	<desc>
			Created with Pixso.
	</desc>
	<path d="M21.3982 23.1863L28.2128 30L30 28.2729L22.9497 21.2076C23.3469 20.5259 23.6603 19.7851 23.874 18.9973C23.8945 18.9153 23.9062 18.8333 23.9062 18.7512L23.9062 14.5325C23.9062 14.0051 23.4727 13.5803 22.9424 13.595C22.4326 13.6096 22.0312 14.0432 22.0312 14.553L22.0312 18.3352C22.0312 18.5374 21.999 18.7395 21.9346 18.9299C21.8308 19.2375 21.7076 19.5352 21.5664 19.8214L20.2274 18.4794C20.4838 17.8375 20.625 17.1382 20.625 16.4075L20.625 5.62622C20.625 2.53247 18.0938 0.0012207 15 0.0012207C11.9062 0.0012207 9.375 2.53247 9.375 5.62622L9.375 7.60394L1.78723 0L0 1.79102L9.375 11.1647L9.375 16.4075C9.375 19.5012 11.9062 22.0325 15 22.0325C16.4505 22.0325 17.7773 21.4761 18.7776 20.5662L20.0724 21.8608C18.7404 23.14 16.9374 23.9075 15 23.9075C11.8535 23.9075 9.06152 21.8831 8.06543 18.9299C8.00098 18.7395 7.96875 18.5374 7.96875 18.3352L7.96875 14.5325C7.96875 14.0051 7.53516 13.5803 7.00488 13.595C6.49512 13.6096 6.09375 14.0432 6.09375 14.553L6.09375 18.7512C6.09375 18.8333 6.10547 18.9182 6.12598 18.9973C7.11035 22.6213 10.2012 25.2522 13.8574 25.7122C13.9746 25.7268 14.0625 25.8264 14.0625 25.9436L14.0625 27.6575C14.0625 27.9153 13.8516 28.1262 13.5938 28.1262L11.25 28.1262C10.2158 28.1262 9.375 28.967 9.375 30.0012L20.625 30.0012C20.625 28.967 19.7842 28.1262 18.75 28.1262L16.4062 28.1262C16.1484 28.1262 15.9375 27.9153 15.9375 27.6575L15.9375 25.9407C15.9375 25.8235 16.0254 25.7239 16.1426 25.7092C17.7832 25.5042 19.3096 24.8596 20.584 23.887C20.8685 23.6696 21.1404 23.4356 21.3982 23.1863Z" fill-rule="evenodd" fill="#000000"/>
	<defs/>
</svg>
